<?xml version="1.0" encoding="UTF-8"?>
<svg id="_图层_1" data-name="图层 1" xmlns="http://www.w3.org/2000/svg" viewBox="0 0 251.81 261.74">
  <defs>
    <style>
      .cls-1 {
        fill: #fae9a0;
      }

      .cls-2 {
        fill: #fae9a0;
      }
    </style>
  </defs>
  <path class="cls-1" d="M52.49.61s-17.72-1.66-.8,47.44c-10.21-5.11-11.16-5.03-11.16-5.03l-5.18,6.82-11.5-.07s-7.23,2.19-2.3,17.89,16.78,34.7,16.78,34.7c0,0,.41,7.04,3.47,12.41s5.87,8.43,11.49,12.26,7.39,19.57,8.17,20.64,29.99,43.3,61.6,3.29c1.73.08,6.19.44,3.45,4.72s-13.46,13.99-7.85,12.97,20-.95,26.09-10.05c1.23-1.95,9.27.96,5.12,4.99s-6.82,16.19-41.99,15.47c-29.3,18.69-53,31.54-75.36,32.14-30.81.02-32.06-.17-32.06-.17,0,0-1.67,10.32,1.46,10.9s24.95-1.36,24.95-1.36c0,0,5.43,1.45.87,3.74s-20.65,8.59-20.65,8.59c0,0-.3,8.78,2.22,9.78s27.57-9.44,26.38-8.93,3,1.59.74,3.86-20.64,15.65-20.64,15.65l6.77,8.48s65.97-50.12,94.83-43.02c30.65.72,69.39,13.62,105.16-45.81,5.65-16.28,5.53-30.96,28.57-35.49,1.08-2.75-.15-3.7-.15-3.7l-18.13-5.6s-12.5-14.03-22.99-8.33c-10.24,1.61-26.32,22.03-26.32,22.03,0,0-11.23,7.53-39.96-29.62S72.32,21.44,72.32,21.44c0,0-14.37-24.06-19.82-20.84Z"/>
  <path class="cls-2" d="M52.75.3s-17.72-1.66-.8,47.44c-10.21-5.11-11.16-5.03-11.16-5.03l-5.18,6.82-11.5-.07s-7.23,2.19-2.3,17.89,16.78,34.7,16.78,34.7c0,0,.41,7.04,3.47,12.41s5.87,8.43,11.49,12.26,7.39,19.57,8.17,20.64,29.99,43.3,61.6,3.29c1.73.08,6.19.44,3.45,4.72s-13.46,13.99-7.85,12.97,20-.95,26.09-10.05c1.23-1.95,9.27.96,5.12,4.99s-6.82,16.19-41.99,15.47c-29.3,18.69-53,31.54-75.36,32.14-30.81.02-32.06-.17-32.06-.17,0,0-1.67,10.32,1.46,10.9s24.95-1.36,24.95-1.36c0,0,5.43,1.45.87,3.74s-20.65,8.59-20.65,8.59c0,0-.3,8.78,2.22,9.78s27.57-9.44,26.38-8.93,3,1.59.74,3.86-20.64,15.65-20.64,15.65l6.77,8.48s65.97-50.12,94.83-43.02c30.65.72,69.39,13.62,105.16-45.81,5.65-16.28,5.53-30.96,28.57-35.49,1.08-2.75-.15-3.7-.15-3.7l-18.13-5.6s-12.5-14.03-22.99-8.33c-10.24,1.61-26.32,22.03-26.32,22.03,0,0-11.23,7.53-39.96-29.62S72.58,21.13,72.58,21.13c0,0-14.37-24.06-19.82-20.84Z"/>
  <path class="cls-2" d="M55.01,3.37c-4.28,5.7-1.15,27.57,4.21,34.85s18.38,32.17,28.72,35.62c10.72,6.51,13.02,9.96,13.02,9.96,0,0,5.36,9.96-4.21,6.51-8.43-4.6-61.21-40.85-61.21-40.85l5.18-6.82,11.16,5.03S35.36,2.49,52.68.22c-.26.31,3.48,1.61,2.33,3.15Z"/>
  <path class="cls-2" d="M23.35,48.69s4.92-.44,4.92,4.92,6.13,50.55,70.47,52.85c-.38.77,11.11,0,0,7.28-12.64-3.06-60.91-12.46-60.91-12.46,0,0-29.74-51.38-14.48-52.59Z"/>
  <path class="cls-2" d="M55.47,128.29s30.64,7.28,49.79.38c1.21.18,8.43,4.21.38,6.89s-44.81,9.96-44.81,9.96l-5.36-17.23Z"/>
  <circle class="cls-2" cx="219.38" cy="137.1" r="4.6"/>
</svg>