<?xml version="1.0" encoding="UTF-8"?>
<svg id="_图层_1" data-name="图层 1" xmlns="http://www.w3.org/2000/svg" viewBox="0 0 314.45 213.07">
  <defs>
    <style>
      .cls-1 {
        font-size: 139.39px;
      }

      .cls-2, .cls-3 {
        fill: #efc06d;
      }

      .cls-3 {
        font-family: STLiti, STLiti;
      }

      .cls-4 {
        font-size: 93.87px;
      }
    </style>
  </defs>
  <path class="cls-2" d="M14.98,167.77s101.11,33.32,163.91,18.38c37.53-36.77,57.86-76.08,57.86-76.08l-1.85-17.2s-26.28-8.09-19.7-38.78c29.56,6.45,29.75,36.77,29.75,36.77l3.74.34,8.31-39.33s-21.04-25.79-3.04-44.74c18.38,9.77,11.87,40.02,11.87,40.02l.97,10.09s2.18,2.66,16.88-7.74c15.09-8.1,26.89-10.85,30.18-6.6s-7.21,16.87-30.3,16.5c-18.11,16.48-19.54,18.85-19.54,18.85,0,0-33.24,78.36-61.67,100.23,15.61.42,26.68-5.51,26.68-5.51,0,0,4.43-25.3,29.23-27.31,10.63,12.17-20.39,34.76-20.39,34.76l-39.99,13.86,35.2,12.29-19.87,6.51-36.16-10.25s-106.27,1.7-143.94-14.95-18.14-20.1-18.14-20.1Z"/>
  <path class="cls-2" d="M298.78,0s3.84,33.29-22.98,42.13c-13.8-19.89,13.03-39.09,22.98-42.13Z"/>
  <text class="cls-3" transform="translate(0 139.9) scale(1.27 1)"><tspan class="cls-4" x="0" y="0">Lv</tspan><tspan class="cls-1" x="95.75" y="0">2</tspan></text>
</svg>